# Blender v2.80 (sub 75) OBJ File: ''
# www.blender.org
mtllib fulllime.mtl
o model.002
v 0.162058 -0.009684 0.174918
v 0.159622 0.042020 0.175428
v 0.120127 0.040100 0.181468
v 0.122563 -0.011604 0.180958
v 0.153597 0.086865 0.150287
v 0.114102 0.084945 0.156327
v 0.145597 0.112835 0.106230
v 0.106102 0.110915 0.112270
v 0.137765 0.112972 0.055062
v 0.098270 0.111052 0.061102
v 0.132200 0.087238 0.010494
v 0.092706 0.085318 0.016534
v 0.130394 0.042529 -0.015532
v 0.090899 0.040609 -0.009492
v 0.132830 -0.009175 -0.016043
v 0.093335 -0.011095 -0.010003
v 0.138855 -0.054020 0.009099
v 0.099360 -0.055940 0.015139
v 0.146855 -0.079990 0.053156
v 0.107360 -0.081910 0.059196
v 0.154687 -0.080126 0.104324
v 0.115192 -0.082047 0.110364
v 0.160251 -0.054393 0.148892
v 0.120757 -0.056313 0.154931
v 0.091136 -0.057753 0.159462
v 0.085571 -0.083487 0.114894
v 0.197262 -0.000689 0.143072
v 0.195487 0.037003 0.143444
v 0.191094 0.069695 0.125116
v 0.185262 0.088628 0.092998
v 0.179553 0.088727 0.055697
v 0.175496 0.069967 0.023207
v 0.174179 0.037375 0.004234
v 0.175955 -0.000318 0.003862
v 0.180347 -0.033010 0.022190
v 0.186179 -0.051942 0.054308
v 0.191889 -0.052041 0.091609
v 0.195945 -0.033281 0.124099
v 0.212283 0.008065 0.111624
v 0.211234 0.030322 0.111844
v 0.208641 0.049626 0.101022
v 0.205197 0.060805 0.082056
v 0.201826 0.060864 0.060030
v 0.199430 0.049787 0.040845
v 0.198653 0.030541 0.029642
v 0.199701 0.008284 0.029422
v 0.202295 -0.011020 0.040245
v 0.205739 -0.022200 0.059210
v 0.209110 -0.022258 0.081236
v 0.211505 -0.011181 0.100421
v 0.230183 0.012071 0.097496
v 0.229419 0.028296 0.097656
v 0.227528 0.042369 0.089766
v 0.225018 0.050518 0.075941
v 0.222560 0.050561 0.059884
v 0.220814 0.042486 0.045898
v 0.220247 0.028456 0.037730
v 0.221011 0.012230 0.037570
v 0.222902 -0.001843 0.045460
v 0.225413 -0.009992 0.059286
v 0.227870 -0.010035 0.075343
v 0.229616 -0.001960 0.089328
v 0.246368 0.021113 0.082485
v 0.077739 -0.083350 0.063726
v 0.069739 -0.057380 0.019669
v 0.063714 -0.012535 -0.005473
v 0.061278 0.039169 -0.004962
v 0.063085 0.083878 0.021064
v 0.068649 0.109611 0.065632
v 0.076481 0.109475 0.116800
v 0.084481 0.083505 0.160857
v 0.090506 0.038660 0.185998
v 0.092942 -0.013044 0.185488
v 0.047840 -0.040483 0.146748
v 0.043783 -0.059242 0.114258
v 0.038074 -0.059143 0.076957
v 0.032242 -0.040211 0.044839
v 0.027850 -0.007519 0.026511
v 0.026074 0.030174 0.026884
v 0.027391 0.062766 0.045857
v 0.031447 0.081526 0.078347
v 0.037157 0.081427 0.115648
v 0.042989 0.062494 0.147766
v 0.047381 0.029802 0.166094
v 0.049157 -0.007890 0.165722
v 0.014032 -0.020782 0.130620
v 0.011636 -0.031860 0.111435
v 0.008265 -0.031801 0.089409
v 0.004821 -0.020622 0.070444
v 0.002228 -0.001317 0.059622
v 0.001179 0.020940 0.059841
v 0.001957 0.040185 0.071045
v 0.004352 0.051263 0.090230
v 0.007723 0.051204 0.112256
v 0.011167 0.040025 0.131221
v 0.013761 0.020720 0.142044
v 0.014809 -0.001537 0.141824
v -0.008188 -0.009259 0.121442
v -0.009602 -0.015800 0.110114
v -0.011593 -0.015765 0.097107
v -0.013627 -0.009164 0.085909
v -0.015158 0.002235 0.079518
v -0.015777 0.015377 0.079648
v -0.015318 0.026742 0.086263
v -0.013904 0.033283 0.097592
v -0.011913 0.033248 0.110598
v -0.009879 0.026647 0.121797
v -0.008348 0.015248 0.128187
v -0.007729 0.002105 0.128058
v -0.029626 -0.006175 0.114697
v -0.032063 -0.006132 0.098773
v -0.033938 0.007824 0.090949
v -0.033376 0.021737 0.099049
v -0.030938 0.021695 0.114972
v -0.029063 0.007739 0.122796
v 0.244285 0.036619 0.073792
v 0.241577 0.036666 0.056099
v 0.240952 0.021207 0.047100
v 0.243035 0.005701 0.055793
v 0.245743 0.005653 0.073486
vn 0.1513 -0.0026 0.9885
vn 0.1075 0.4971 0.8610
vn 0.0349 0.8637 0.5028
vn -0.0471 0.9988 0.0099
vn -0.1164 0.8663 -0.4857
vn -0.1546 0.5017 -0.8511
vn -0.1513 0.0026 -0.9885
vn -0.1075 -0.4971 -0.8610
vn -0.0349 -0.8637 -0.5028
vn 0.0471 -0.9988 -0.0099
vn 0.1164 -0.8663 0.4857
vn 0.1546 -0.5017 0.8511
vn 0.6673 0.0241 0.7444
vn 0.6306 0.4423 0.6378
vn 0.5699 0.7490 0.3380
vn 0.5013 0.8621 -0.0744
vn 0.4433 0.7512 -0.4891
vn 0.4113 0.4461 -0.7949
vn 0.4141 0.0285 -0.9098
vn 0.4507 -0.3897 -0.8031
vn 0.5115 -0.6964 -0.5034
vn 0.5800 -0.8095 -0.0909
vn 0.6381 -0.6986 0.3237
vn 0.6700 -0.3935 0.6295
vn 0.8976 0.0379 0.4393
vn 0.8726 0.3228 0.3666
vn 0.8312 0.5317 0.1625
vn 0.7845 0.6087 -0.1185
vn 0.7450 0.5332 -0.4009
vn 0.7232 0.3254 -0.6091
vn 0.7251 0.0409 -0.6874
vn 0.7501 -0.2439 -0.6148
vn 0.7914 -0.4528 -0.4106
vn 0.8381 -0.5298 -0.1297
vn 0.8777 -0.4543 0.1527
vn 0.8994 -0.2465 0.3610
vn 0.6165 0.0213 0.7871
vn 0.5783 0.4567 0.6760
vn 0.5151 0.7761 0.3639
vn 0.4437 0.8938 -0.0655
vn 0.3833 0.7784 -0.4973
vn 0.3500 0.4607 -0.8156
vn 0.3528 0.0259 -0.9353
vn 0.3910 -0.4096 -0.8242
vn 0.4543 -0.7289 -0.5122
vn 0.5257 -0.8467 -0.0827
vn 0.5861 -0.7312 0.3490
vn 0.6193 -0.4135 0.6674
vn 0.6725 0.0244 0.7397
vn -0.4433 -0.7512 0.4891
vn -0.5013 -0.8621 0.0744
vn -0.5699 -0.7490 -0.3380
vn -0.6306 -0.4423 -0.6377
vn -0.6673 -0.0241 -0.7444
vn -0.6700 0.3935 -0.6295
vn -0.6381 0.6986 -0.3237
vn -0.5800 0.8095 0.0909
vn -0.5115 0.6964 0.5034
vn -0.4507 0.3897 0.8031
vn -0.4141 -0.0285 0.9098
vn -0.4113 -0.4461 0.7949
vn -0.6003 -0.6579 0.4548
vn -0.6503 -0.7534 0.0975
vn -0.7094 -0.6560 -0.2578
vn -0.7617 -0.3917 -0.5161
vn -0.7933 -0.0314 -0.6080
vn -0.7957 0.3284 -0.5090
vn -0.7681 0.5913 -0.2455
vn -0.7182 0.6869 0.1118
vn -0.6591 0.5894 0.4671
vn -0.6067 0.3251 0.7254
vn -0.5751 -0.0352 0.8173
vn -0.5728 -0.3950 0.7183
vn -0.5514 -0.6908 0.4677
vn -0.6042 -0.7917 0.0904
vn -0.6666 -0.6888 -0.2850
vn -0.7219 -0.4097 -0.5577
vn -0.7553 -0.0291 -0.6548
vn -0.7577 0.3509 -0.5502
vn -0.7287 0.6285 -0.2719
vn -0.6759 0.7294 0.1054
vn -0.6135 0.6265 0.4807
vn -0.5582 0.3474 0.7535
vn -0.5249 -0.0331 0.8505
vn -0.5224 -0.4131 0.7459
vn -0.2768 -0.8168 0.5062
vn -0.4209 -0.9050 0.0620
vn -0.4162 -0.8144 -0.4045
vn -0.5574 -0.4617 -0.6900
vn -0.5234 -0.0162 -0.8519
vn -0.5990 0.4208 -0.6813
vn -0.4913 0.7795 -0.3887
vn -0.5040 0.8600 0.0794
vn -0.3519 0.7770 0.5219
vn -0.3675 0.4168 0.8314
vn -0.2446 -0.0211 0.9694
vn -0.3259 -0.4658 0.8227
vn -0.9874 -0.0480 0.1510
vn 0.6977 0.4194 0.5809
vn 0.5755 0.7459 0.3352
vn 0.5765 0.8125 -0.0861
vn 0.4495 0.7481 -0.4881
vn 0.4923 0.4230 -0.7607
vn 0.4204 0.0288 -0.9069
vn 0.5292 -0.3597 -0.7685
vn 0.5174 -0.6928 -0.5023
vn 0.6503 -0.7529 -0.1015
vn 0.6434 -0.6950 0.3210
vn 0.7345 -0.3633 0.5731
vn 0.9874 0.0480 -0.1510
usemtl mat9
s 1
f 1//1 2//1 3//1 4//1
f 2//2 5//2 6//2 3//2
f 5//3 7//3 8//3 6//3
f 7//4 9//4 10//4 8//4
f 9//5 11//5 12//5 10//5
f 11//6 13//6 14//6 12//6
f 13//7 15//7 16//7 14//7
f 15//8 17//8 18//8 16//8
f 17//9 19//9 20//9 18//9
f 19//10 21//10 22//10 20//10
f 21//11 23//11 24//11 22//11
f 23//12 1//12 4//12 24//12
f 25//11 26//11 22//11 24//11
f 27//13 28//13 2//13 1//13
f 28//14 29//14 5//14 2//14
f 29//15 30//15 7//15 5//15
f 30//16 31//16 9//16 7//16
f 31//17 32//17 11//17 9//17
f 32//18 33//18 13//18 11//18
f 33//19 34//19 15//19 13//19
f 34//20 35//20 17//20 15//20
f 35//21 36//21 19//21 17//21
f 36//22 37//22 21//22 19//22
f 37//23 38//23 23//23 21//23
f 38//24 27//24 1//24 23//24
f 39//25 40//25 28//25 27//25
f 40//26 41//26 29//26 28//26
f 41//27 42//27 30//27 29//27
f 42//28 43//28 31//28 30//28
f 43//29 44//29 32//29 31//29
f 44//30 45//30 33//30 32//30
f 45//31 46//31 34//31 33//31
f 46//32 47//32 35//32 34//32
f 47//33 48//33 36//33 35//33
f 48//34 49//34 37//34 36//34
f 49//35 50//35 38//35 37//35
f 50//36 39//36 27//36 38//36
f 51//37 52//37 40//37 39//37
f 52//38 53//38 41//38 40//38
f 53//39 54//39 42//39 41//39
f 54//40 55//40 43//40 42//40
f 55//41 56//41 44//41 43//41
f 56//42 57//42 45//42 44//42
f 57//43 58//43 46//43 45//43
f 58//44 59//44 47//44 46//44
f 59//45 60//45 48//45 47//45
f 60//46 61//46 49//46 48//46
f 61//47 62//47 50//47 49//47
f 62//48 51//48 39//48 50//48
f 63//49 52//49 51//49
f 26//10 64//10 20//10 22//10
f 64//9 65//9 18//9 20//9
f 65//8 66//8 16//8 18//8
f 66//7 67//7 14//7 16//7
f 67//6 68//6 12//6 14//6
f 68//5 69//5 10//5 12//5
f 69//4 70//4 8//4 10//4
f 70//3 71//3 6//3 8//3
f 71//2 72//2 3//2 6//2
f 72//1 73//1 4//1 3//1
f 73//12 25//12 24//12 4//12
f 74//50 75//50 26//50 25//50
f 75//51 76//51 64//51 26//51
f 76//52 77//52 65//52 64//52
f 77//53 78//53 66//53 65//53
f 78//54 79//54 67//54 66//54
f 79//55 80//55 68//55 67//55
f 80//56 81//56 69//56 68//56
f 81//57 82//57 70//57 69//57
f 82//58 83//58 71//58 70//58
f 83//59 84//59 72//59 71//59
f 84//60 85//60 73//60 72//60
f 85//61 74//61 25//61 73//61
f 86//62 87//62 75//62 74//62
f 87//63 88//63 76//63 75//63
f 88//64 89//64 77//64 76//64
f 89//65 90//65 78//65 77//65
f 90//66 91//66 79//66 78//66
f 91//67 92//67 80//67 79//67
f 92//68 93//68 81//68 80//68
f 93//69 94//69 82//69 81//69
f 94//70 95//70 83//70 82//70
f 95//71 96//71 84//71 83//71
f 96//72 97//72 85//72 84//72
f 97//73 86//73 74//73 85//73
f 98//74 99//74 87//74 86//74
f 99//75 100//75 88//75 87//75
f 100//76 101//76 89//76 88//76
f 101//77 102//77 90//77 89//77
f 102//78 103//78 91//78 90//78
f 103//79 104//79 92//79 91//79
f 104//80 105//80 93//80 92//80
f 105//81 106//81 94//81 93//81
f 106//82 107//82 95//82 94//82
f 107//83 108//83 96//83 95//83
f 108//84 109//84 97//84 96//84
f 109//85 98//85 86//85 97//85
f 110//86 99//86 98//86
f 110//87 111//87 100//87 99//87
f 111//88 101//88 100//88
f 111//89 112//89 102//89 101//89
f 112//90 103//90 102//90
f 112//91 113//91 104//91 103//91
f 113//92 105//92 104//92
f 113//93 114//93 106//93 105//93
f 114//94 107//94 106//94
f 114//95 115//95 108//95 107//95
f 115//96 109//96 108//96
f 115//97 110//97 98//97 109//97
f 115//98 114//98 113//98 112//98 111//98 110//98
f 63//99 116//99 53//99 52//99
f 116//100 54//100 53//100
f 116//101 117//101 55//101 54//101
f 117//102 56//102 55//102
f 117//103 118//103 57//103 56//103
f 118//104 58//104 57//104
f 118//105 119//105 59//105 58//105
f 119//106 60//106 59//106
f 119//107 120//107 61//107 60//107
f 120//108 62//108 61//108
f 120//109 63//109 51//109 62//109
f 120//110 119//110 118//110 117//110 116//110 63//110
