# Blender v2.80 (sub 75) OBJ File: ''
# www.blender.org
mtllib halflime.mtl
o model.001
v -0.143486 -0.049120 -0.051353
v -0.149716 0.000645 -0.038544
v -0.150912 0.002979 -0.048194
v -0.144682 -0.046786 -0.061003
v -0.129605 0.047516 -0.029700
v -0.130801 0.049850 -0.039350
v -0.088541 0.078932 -0.027191
v -0.089737 0.081266 -0.036841
v -0.037528 0.086476 -0.031690
v -0.038724 0.088810 -0.041340
v 0.009766 0.068127 -0.041991
v 0.008569 0.070461 -0.051641
v 0.040667 0.028801 -0.055333
v 0.039471 0.031135 -0.064983
v 0.046898 -0.020965 -0.068143
v 0.045701 -0.018630 -0.077793
v 0.026786 -0.067835 -0.076986
v 0.025590 -0.065501 -0.086636
v -0.014277 -0.099251 -0.079495
v -0.015473 -0.096917 -0.089145
v -0.065290 -0.106795 -0.074996
v -0.066486 -0.104461 -0.084646
v -0.112584 -0.088446 -0.064696
v -0.113780 -0.086112 -0.074346
v -0.107663 -0.078283 -0.073210
v -0.065098 -0.094798 -0.082481
v -0.120010 -0.053388 -0.003482
v -0.125057 -0.013078 0.006894
v -0.019186 -0.088008 -0.086530
v 0.017771 -0.059733 -0.084272
v 0.035871 -0.017550 -0.076313
v 0.030264 0.027239 -0.064784
v 0.002452 0.062632 -0.052776
v -0.040112 0.079147 -0.043505
v -0.086024 0.072357 -0.039456
v -0.122982 0.044082 -0.041714
v -0.141081 0.001899 -0.049674
v -0.135474 -0.042890 -0.061202
v -0.107951 -0.072421 -0.082119
v -0.058399 -0.009009 -0.072924
v -0.052605 -0.007825 -0.062993
v -0.105605 -0.074151 -0.082829
v -0.067297 -0.089014 -0.091172
v -0.064348 -0.089338 -0.091616
v -0.023027 -0.083227 -0.095260
v -0.020265 -0.082059 -0.095320
v 0.012997 -0.056611 -0.093288
v 0.014832 -0.054263 -0.092947
v 0.031122 -0.016298 -0.085784
v 0.031538 -0.013399 -0.085134
v 0.026492 0.026911 -0.074759
v 0.025378 0.029584 -0.073974
v 0.000348 0.061438 -0.063167
v -0.059513 -0.006336 -0.072139
v -0.139142 0.002416 -0.060152
v -0.059097 -0.003437 -0.071490
v -0.122435 0.043280 -0.052339
v -0.051550 -0.000244 -0.071653
v -0.001998 0.063168 -0.062457
v -0.054499 0.000080 -0.071209
v -0.043255 0.078355 -0.053670
v -0.057261 -0.001088 -0.071149
v -0.087338 0.071076 -0.049966
v -0.053104 -0.011063 -0.074077
v -0.056053 -0.010739 -0.073633
v -0.132981 -0.040567 -0.071312
v -0.134095 -0.037894 -0.070527
v -0.138725 0.005315 -0.059502
v -0.120600 0.045629 -0.051998
v -0.084576 0.072245 -0.050026
v -0.040306 0.078031 -0.054114
v -0.049204 -0.001974 -0.072362
v -0.048090 -0.004647 -0.073147
v -0.048506 -0.007546 -0.073796
v -0.050342 -0.009894 -0.074137
v -0.108767 0.024887 0.014058
v -0.075505 0.050334 0.016090
v -0.034184 0.056445 0.012445
v 0.004123 0.041582 0.004102
v 0.029154 0.009728 -0.006705
v 0.034201 -0.030582 -0.017081
v 0.017910 -0.068547 -0.024245
v -0.015351 -0.093994 -0.026277
v -0.056672 -0.100105 -0.022633
v -0.094980 -0.085242 -0.014289
v -0.085880 -0.047467 0.024808
v -0.088860 -0.023664 0.030935
v -0.079240 -0.001246 0.035165
v -0.059600 0.013780 0.036365
v -0.035200 0.017388 0.034213
v -0.012580 0.008612 0.029286
v 0.002200 -0.010198 0.022904
v 0.005180 -0.034000 0.016778
v -0.004439 -0.056418 0.012548
v -0.024080 -0.071445 0.011348
v -0.048479 -0.075053 0.013499
v -0.071099 -0.066277 0.018426
v -0.061655 -0.045738 0.053312
v -0.063239 -0.033088 0.056568
v -0.058127 -0.021174 0.058816
v -0.047689 -0.013189 0.059454
v -0.034722 -0.011271 0.058310
v -0.022701 -0.015935 0.055692
v -0.014846 -0.025931 0.052300
v -0.013262 -0.038581 0.049044
v -0.018374 -0.050495 0.046796
v -0.028812 -0.058480 0.046159
v -0.041779 -0.060398 0.047302
v -0.053800 -0.055734 0.049920
v -0.113456 -0.086350 -0.074443
v -0.144528 -0.047154 -0.061111
v -0.147732 -0.043003 -0.069214
v -0.116661 -0.082198 -0.082546
v -0.150969 0.002579 -0.048283
v -0.154174 0.006731 -0.056386
v -0.131054 0.049525 -0.039397
v -0.134258 0.053677 -0.047500
v -0.090118 0.081104 -0.036833
v -0.093323 0.085256 -0.044936
v -0.039131 0.088854 -0.041279
v -0.042336 0.093006 -0.049381
v 0.008245 0.070699 -0.051543
v 0.005041 0.074851 -0.059646
v 0.039317 0.031503 -0.064875
v 0.036112 0.035655 -0.072978
v 0.045758 -0.018231 -0.077703
v 0.042553 -0.014079 -0.085806
v 0.025843 -0.065177 -0.086589
v 0.022638 -0.061025 -0.094692
v -0.015093 -0.096755 -0.089153
v -0.018297 -0.092603 -0.097256
v -0.066080 -0.104505 -0.084708
v -0.069284 -0.100353 -0.092810
vn -0.9855 -0.1457 0.0869
vn -0.9137 0.3545 0.1990
vn -0.5970 0.7597 0.2577
vn -0.1204 0.9614 0.2474
vn 0.3885 0.9055 0.1708
vn 0.7933 0.6069 0.0484
vn 0.9855 0.1458 -0.0869
vn 0.9136 -0.3545 -0.1990
vn 0.5970 -0.7597 -0.2577
vn 0.1204 -0.9614 -0.2474
vn -0.3885 -0.9055 -0.1709
vn -0.7933 -0.6069 -0.0485
vn -0.1196 0.2334 -0.9650
vn -0.8839 -0.2173 0.4141
vn 0.7556 -0.5358 -0.3769
vn -0.4065 -0.8047 -0.4327
vn 0.0823 -0.8584 -0.5063
vn 0.5401 -0.6647 -0.5162
vn 0.8442 -0.2755 -0.4597
vn 0.9132 0.2050 -0.3521
vn 0.7287 0.6479 -0.2220
vn 0.1195 0.9903 0.0710
vn 0.5872 0.8088 -0.0309
vn 0.7556 -0.5358 -0.3770
vn 0.9544 -0.0722 -0.2895
vn 0.8928 0.4199 -0.1628
vn 0.8928 0.4199 -0.1629
vn -0.9899 0.1415 0.0033
vn -0.7910 0.6050 0.0906
vn -0.3850 0.9157 0.1154
vn -0.7952 -0.5180 -0.3151
vn -0.9799 -0.0750 -0.1851
vn 0.3495 -0.8464 -0.4018
vn -0.9108 0.4054 -0.0775
vn -0.1550 -0.9211 -0.3573
vn -0.6067 0.7947 -0.0210
vn -0.6227 -0.7396 -0.2555
vn -0.1489 0.9884 -0.0309
vn -0.9283 -0.3507 -0.1234
vn 0.3399 0.9346 -0.1045
vn -0.9899 0.1415 0.0032
vn -0.7910 0.6050 0.0907
vn -0.1550 -0.9211 -0.3572
vn -0.6227 -0.7396 -0.2554
vn -0.8165 0.2523 0.5193
vn -0.5192 0.6328 0.5745
vn -0.0718 0.8221 0.5648
vn 0.4059 0.7696 0.4929
vn 0.7859 0.4893 0.3780
vn 0.9664 0.0564 0.2509
vn 0.8989 -0.4132 0.1457
vn 0.6016 -0.7936 0.0905
vn 0.1542 -0.9829 0.1002
vn -0.3235 -0.9304 0.1721
vn -0.7035 -0.6502 0.2870
vn -0.5863 -0.2700 0.7638
vn -0.5371 0.0719 0.8404
vn -0.3207 0.3489 0.8806
vn 0.0051 0.4867 0.8735
vn 0.3529 0.4485 0.8212
vn 0.6295 0.2444 0.7375
vn 0.7609 -0.0708 0.6450
vn 0.7118 -0.4127 0.5684
vn 0.4954 -0.6896 0.5282
vn 0.1696 -0.8275 0.5353
vn -0.1782 -0.7893 0.5876
vn -0.4549 -0.5852 0.6713
vn -0.7292 -0.2548 0.6351
vn -0.6709 0.1509 0.7260
vn -0.4141 0.4795 0.7737
vn -0.0276 0.6430 0.7653
vn 0.3851 0.5977 0.7032
vn 0.7133 0.3556 0.6039
vn 0.8692 -0.0184 0.4942
vn 0.8109 -0.4240 0.4033
vn 0.5541 -0.7527 0.3556
vn 0.1676 -0.9162 0.3640
vn -0.2451 -0.8708 0.4261
vn -0.5733 -0.6288 0.5254
vn 0.1196 -0.2334 0.9650
vn -0.7848 -0.6197 -0.0071
vn -0.9423 -0.1927 0.2739
vn -0.8411 0.2679 0.4699
vn -0.5339 0.6480 0.5432
vn -0.0904 0.8713 0.4823
vn 0.3966 0.8711 0.2896
vn 0.7848 0.6197 0.0072
vn 0.9422 0.1927 -0.2740
vn 0.8411 -0.2679 -0.4699
vn 0.5339 -0.6480 -0.5432
vn 0.0904 -0.8714 -0.4823
vn -0.3966 -0.8711 -0.2896
usemtl mat9
s 1
f 1//1 2//1 3//1 4//1
f 2//2 5//2 6//2 3//2
f 5//3 7//3 8//3 6//3
f 7//4 9//4 10//4 8//4
f 9//5 11//5 12//5 10//5
f 11//6 13//6 14//6 12//6
f 13//7 15//7 16//7 14//7
f 15//8 17//8 18//8 16//8
f 17//9 19//9 20//9 18//9
f 19//10 21//10 22//10 20//10
f 21//11 23//11 24//11 22//11
f 23//12 1//12 4//12 24//12
f 25//13 26//13 22//13 24//13
f 27//14 28//14 2//14 1//14
f 26//13 29//13 20//13 22//13
f 29//13 30//13 18//13 20//13
f 30//13 31//13 16//13 18//13
f 31//13 32//13 14//13 16//13
f 32//13 33//13 12//13 14//13
f 33//13 34//13 10//13 12//13
f 34//13 35//13 8//13 10//13
f 35//13 36//13 6//13 8//13
f 36//13 37//13 3//13 6//13
f 37//13 38//13 4//13 3//13
f 38//13 25//13 24//13 4//13
f 39//15 40//15 41//15 25//15
f 42//16 43//16 26//16 25//16
f 44//17 45//17 29//17 26//17
f 46//18 47//18 30//18 29//18
f 48//19 49//19 31//19 30//19
f 50//20 51//20 32//20 31//20
f 52//21 53//21 33//21 32//21
f 54//22 55//22 37//22 41//22
f 56//23 57//23 36//23 41//23
f 58//24 59//24 33//24 41//24
f 60//25 61//25 34//25 41//25
f 62//26 63//26 35//26 41//26
f 45//27 64//27 41//27 29//27
f 64//28 44//28 26//28 41//28
f 64//13 45//13 44//13
f 43//25 65//25 41//25 26//25
f 65//29 42//29 25//29 41//29
f 65//13 43//13 42//13
f 40//30 66//30 38//30 41//30
f 66//31 39//31 25//31 38//31
f 66//13 40//13 39//13
f 55//32 67//32 38//32 37//32
f 67//33 54//33 41//33 38//33
f 67//13 55//13 54//13
f 57//34 68//34 37//34 36//34
f 68//35 56//35 41//35 37//35
f 68//13 57//13 56//13
f 63//36 69//36 36//36 35//36
f 69//37 62//37 41//37 36//37
f 69//13 63//13 62//13
f 61//38 70//38 35//38 34//38
f 70//39 60//39 41//39 35//39
f 70//13 61//13 60//13
f 59//40 71//40 34//40 33//40
f 71//41 58//41 41//41 34//41
f 71//13 59//13 58//13
f 53//42 72//42 41//42 33//42
f 72//33 52//33 32//33 41//33
f 72//13 53//13 52//13
f 51//30 73//30 41//30 32//30
f 73//43 50//43 31//43 41//43
f 73//13 51//13 50//13
f 49//22 74//22 41//22 31//22
f 74//44 48//44 30//44 41//44
f 74//13 49//13 48//13
f 47//23 75//23 41//23 30//23
f 75//39 46//39 29//39 41//39
f 75//13 47//13 46//13
f 28//45 76//45 5//45 2//45
f 76//46 77//46 7//46 5//46
f 77//47 78//47 9//47 7//47
f 78//48 79//48 11//48 9//48
f 79//49 80//49 13//49 11//49
f 80//50 81//50 15//50 13//50
f 81//51 82//51 17//51 15//51
f 82//52 83//52 19//52 17//52
f 83//53 84//53 21//53 19//53
f 84//54 85//54 23//54 21//54
f 85//55 27//55 1//55 23//55
f 86//56 87//56 28//56 27//56
f 87//57 88//57 76//57 28//57
f 88//58 89//58 77//58 76//58
f 89//59 90//59 78//59 77//59
f 90//60 91//60 79//60 78//60
f 91//61 92//61 80//61 79//61
f 92//62 93//62 81//62 80//62
f 93//63 94//63 82//63 81//63
f 94//64 95//64 83//64 82//64
f 95//65 96//65 84//65 83//65
f 96//66 97//66 85//66 84//66
f 97//67 86//67 27//67 85//67
f 98//68 99//68 87//68 86//68
f 99//69 100//69 88//69 87//69
f 100//70 101//70 89//70 88//70
f 101//71 102//71 90//71 89//71
f 102//72 103//72 91//72 90//72
f 103//73 104//73 92//73 91//73
f 104//74 105//74 93//74 92//74
f 105//75 106//75 94//75 93//75
f 106//76 107//76 95//76 94//76
f 107//77 108//77 96//77 95//77
f 108//78 109//78 97//78 96//78
f 109//79 98//79 86//79 97//79
f 109//80 108//80 107//80 106//80 105//80 104//80 103//80 102//80 101//80 100//80 99//80 98//80
usemtl (null)
f 110//81 111//81 112//81 113//81
f 111//82 114//82 115//82 112//82
f 114//83 116//83 117//83 115//83
f 116//84 118//84 119//84 117//84
f 118//85 120//85 121//85 119//85
f 120//86 122//86 123//86 121//86
f 122//87 124//87 125//87 123//87
f 124//88 126//88 127//88 125//88
f 126//89 128//89 129//89 127//89
f 128//90 130//90 131//90 129//90
f 130//91 132//91 133//91 131//91
f 132//92 110//92 113//92 133//92
f 113//13 112//13 115//13 117//13 119//13 121//13 123//13 125//13 127//13 129//13 131//13 133//13
f 132//80 130//80 128//80 126//80 124//80 122//80 120//80 118//80 116//80 114//80 111//80 110//80
