# Blender v2.80 (sub 75) OBJ File: ''
# www.blender.org
mtllib chair.mtl
o chair_SwimmingPool.023
v 0.856010 -0.728907 0.130703
v 0.948761 -0.728907 0.108318
v 0.813395 0.050559 -0.452543
v 0.720645 0.050559 -0.430159
v 0.695086 -0.035799 -0.536055
v 0.787837 -0.035799 -0.558439
v 0.937004 -0.894975 0.059608
v 0.844253 -0.894975 0.081993
v 0.969338 -0.894964 0.193575
v 0.876587 -0.894964 0.215961
v 0.957499 -0.728900 0.144525
v 0.864749 -0.728900 0.166910
v 1.120213 -0.039066 0.818701
v 1.027463 -0.039066 0.841085
v 1.094574 0.046850 0.712465
v 1.001823 0.046850 0.734852
v -1.305399 -0.040134 -1.796041
v -1.205050 -0.040134 -1.380262
v -1.205050 0.052357 -1.380262
v -1.305399 0.052357 -1.796041
v 0.441860 0.052357 -1.777748
v 0.341510 0.052357 -2.193527
v 0.441860 -0.040134 -1.777748
v 0.341510 -0.040134 -2.193527
v -1.182140 -0.040134 -1.285341
v -1.081790 -0.040134 -0.869562
v -1.081790 0.052357 -0.869562
v -1.182140 0.052357 -1.285341
v 0.565118 0.052357 -1.267048
v 0.464769 0.052357 -1.682827
v 0.565118 -0.040134 -1.267048
v 0.464769 -0.040134 -1.682827
v -1.058881 -0.040134 -0.774641
v -0.958532 -0.040134 -0.358862
v -0.958532 0.052357 -0.358862
v -1.058881 0.052357 -0.774641
v 0.688377 0.052357 -0.756350
v 0.588028 0.052357 -1.172129
v 0.688377 -0.040134 -0.756350
v 0.588028 -0.040134 -1.172129
v -0.935622 -0.040134 -0.263941
v -0.835272 -0.040134 0.151838
v -0.835272 0.052357 0.151838
v -0.935622 0.052357 -0.263941
v 0.811636 0.052357 -0.245647
v 0.711287 0.052357 -0.661427
v 0.811636 -0.040134 -0.245647
v 0.711287 -0.040134 -0.661427
v -0.812363 -0.040134 0.246759
v -0.712014 -0.040135 0.662539
v -0.712014 0.052357 0.662539
v -0.812363 0.052357 0.246759
v 0.934895 0.052357 0.265051
v 0.834546 0.052357 -0.150728
v 0.934895 -0.040134 0.265051
v 0.834546 -0.040134 -0.150728
v -0.689105 -0.040135 0.757460
v -0.588755 -0.040135 1.173239
v -0.588755 0.052357 1.173239
v -0.689105 0.052357 0.757460
v 1.058155 0.052357 0.775751
v 0.957804 0.052357 0.359972
v 1.058155 -0.040135 0.775751
v 0.957804 -0.040134 0.359972
v -0.550215 0.029678 1.332918
v -0.486715 0.360866 1.596024
v -0.503518 0.419394 1.526405
v -0.567017 0.088205 1.263302
v 1.143392 0.419394 1.128918
v 1.079891 0.088205 0.865816
v 1.160194 0.360866 1.198536
v 1.096694 0.029678 0.935432
v -0.472218 0.436476 1.656088
v -0.408717 0.767667 1.919191
v -0.425519 0.826194 1.849573
v -0.489020 0.495004 1.586470
v 1.221389 0.826194 1.452086
v 1.157888 0.495004 1.188982
v 1.238191 0.767667 1.521704
v 1.174691 0.436476 1.258600
v -0.394221 0.843276 1.979256
v -0.330719 1.174468 2.242361
v -0.347522 1.232995 2.172741
v -0.411023 0.901803 1.909639
v 1.299387 1.232995 1.775254
v 1.235886 0.901803 1.512152
v 1.316190 1.174468 1.844874
v 1.252689 0.843276 1.581768
v -0.392770 1.192095 2.298285
v -0.249989 1.192095 2.263825
v -0.275439 1.279034 2.158381
v -0.418220 1.279034 2.192841
v -0.649806 0.075618 1.233309
v -0.507025 0.075618 1.198847
v -1.242263 0.075618 -1.847475
v -1.385045 0.075618 -1.813015
v -1.242263 -0.063396 -1.847475
v -1.385045 -0.063396 -1.813015
v -0.507025 -0.063397 1.198847
v -0.649806 -0.063397 1.233309
v -0.473534 0.003294 1.337608
v -0.616315 0.003294 1.372068
v -0.498984 0.090234 1.232162
v -0.641765 0.090234 1.266623
v 1.254139 1.192095 1.900799
v 1.396921 1.192095 1.866339
v 1.371471 1.279034 1.760895
v 1.228689 1.279034 1.795355
v 0.997102 0.075618 0.835823
v 1.139885 0.075618 0.801361
v 0.404645 0.075618 -2.244961
v 0.261863 0.075618 -2.210501
v 0.404645 -0.063396 -2.244961
v 0.261863 -0.063396 -2.210501
v 1.139885 -0.063397 0.801361
v 0.997102 -0.063397 0.835823
v 1.173375 0.003294 0.940123
v 1.030592 0.003294 0.974583
v 1.147926 0.090234 0.834677
v 1.005144 0.090234 0.869137
v -1.181393 -0.728907 -1.078907
v -1.088642 -0.728907 -1.101292
v -1.224007 0.050559 -1.662153
v -1.316759 0.050559 -1.639769
v -1.342316 -0.035799 -1.745665
v -1.249566 -0.035799 -1.768049
v -1.100398 -0.894975 -1.150002
v -1.193149 -0.894975 -1.127617
v -1.068064 -0.894964 -1.016035
v -1.160816 -0.894964 -0.993649
v -1.079903 -0.728900 -1.065085
v -1.172654 -0.728900 -1.042700
v -0.917189 -0.039066 -0.390909
v -1.009940 -0.039066 -0.368525
v -0.942830 0.046850 -0.497145
v -1.035580 0.046850 -0.474758
v -0.793372 -0.728907 0.528786
v -0.700621 -0.728907 0.506401
v -0.835986 0.050559 -0.054461
v -0.928737 0.050559 -0.032076
v -0.954296 -0.035799 -0.137972
v -0.861544 -0.035799 -0.160357
v -0.712377 -0.894975 0.457691
v -0.805129 -0.894975 0.480076
v -0.680044 -0.894964 0.591658
v -0.772794 -0.894964 0.614044
v -0.691882 -0.728900 0.542608
v -0.784633 -0.728901 0.564993
v -0.529168 -0.039067 1.216784
v -0.621919 -0.039067 1.239168
v -0.554808 0.046850 1.110548
v -0.647559 0.046850 1.132935
v 0.467989 -0.728907 -1.476990
v 0.560739 -0.728907 -1.499375
v 0.425374 0.050559 -2.060236
v 0.332623 0.050559 -2.037851
v 0.307066 -0.035799 -2.143747
v 0.399816 -0.035799 -2.166132
v 0.548983 -0.894975 -1.548084
v 0.456233 -0.894975 -1.525700
v 0.581317 -0.894964 -1.414118
v 0.488566 -0.894964 -1.391731
v 0.569479 -0.728900 -1.463167
v 0.476728 -0.728900 -1.440783
v 0.732193 -0.039066 -0.788992
v 0.639442 -0.039066 -0.766607
v 0.706552 0.046850 -0.895227
v 0.613802 0.046850 -0.872841
vt 0.585858 0.540506
vt 0.581484 0.540665
vt 0.583720 0.496803
vt 0.588250 0.496965
vt 0.572437 0.495954
vt 0.577099 0.496234
vt 0.574111 0.538594
vt 0.569517 0.538388
vt 0.562063 0.540085
vt 0.565870 0.495448
vt 0.573892 0.544224
vt 0.569296 0.544040
vt 0.581496 0.542443
vt 0.585980 0.542222
vt 0.561820 0.541858
vt 0.575485 0.586470
vt 0.570845 0.586637
vt 0.582045 0.586339
vt 0.586524 0.586135
vt 0.564364 0.586976
vt 0.316418 0.566266
vt 0.316199 0.555028
vt 0.318633 0.554981
vt 0.318848 0.566219
vt 0.363152 0.554144
vt 0.363360 0.565381
vt 0.365581 0.554097
vt 0.365788 0.565336
vt 0.363405 0.567810
vt 0.363618 0.579046
vt 0.319106 0.579886
vt 0.318893 0.568649
vt 0.318588 0.552552
vt 0.363106 0.551713
vt 0.318437 0.536264
vt 0.318288 0.525015
vt 0.320720 0.524982
vt 0.320870 0.536232
vt 0.365277 0.524389
vt 0.365427 0.535638
vt 0.367709 0.524356
vt 0.367860 0.535606
vt 0.365460 0.538071
vt 0.365610 0.549320
vt 0.321052 0.549914
vt 0.320902 0.538664
vt 0.320687 0.522550
vt 0.365244 0.521956
vt 0.318357 0.507145
vt 0.318263 0.495880
vt 0.320700 0.495859
vt 0.320793 0.507125
vt 0.365328 0.495503
vt 0.365415 0.506768
vt 0.367765 0.495485
vt 0.367851 0.506749
vt 0.365435 0.509203
vt 0.365525 0.520468
vt 0.320902 0.520826
vt 0.320812 0.509561
vt 0.320681 0.493423
vt 0.365309 0.493067
vt 0.367892 0.565727
vt 0.367865 0.554449
vt 0.370304 0.554443
vt 0.370331 0.565721
vt 0.414974 0.554332
vt 0.415003 0.565610
vt 0.417413 0.554325
vt 0.417442 0.565605
vt 0.415009 0.568049
vt 0.415037 0.579327
vt 0.370365 0.579438
vt 0.370337 0.568160
vt 0.370297 0.552004
vt 0.414968 0.551893
vt 0.368394 0.506788
vt 0.368421 0.495492
vt 0.370866 0.495497
vt 0.370837 0.506793
vt 0.415617 0.495623
vt 0.415582 0.506917
vt 0.418060 0.495632
vt 0.418023 0.506924
vt 0.415575 0.509359
vt 0.415542 0.520653
vt 0.370799 0.520531
vt 0.370830 0.509236
vt 0.370872 0.493054
vt 0.415625 0.493180
vt 0.368559 0.536052
vt 0.368654 0.524742
vt 0.371099 0.524762
vt 0.371005 0.536072
vt 0.415894 0.525134
vt 0.415801 0.536444
vt 0.418340 0.525154
vt 0.418247 0.536464
vt 0.415781 0.538889
vt 0.415687 0.550199
vt 0.370890 0.549827
vt 0.370985 0.538517
vt 0.371120 0.522317
vt 0.415914 0.522689
vt 0.418703 0.536717
vt 0.418700 0.524917
vt 0.421250 0.524916
vt 0.421254 0.536715
vt 0.467983 0.524901
vt 0.467990 0.536698
vt 0.470534 0.524900
vt 0.470539 0.536698
vt 0.467991 0.539250
vt 0.467993 0.551049
vt 0.421259 0.551066
vt 0.421255 0.539267
vt 0.421249 0.522365
vt 0.467981 0.522350
vt 0.418661 0.566170
vt 0.418683 0.554317
vt 0.421246 0.554321
vt 0.421225 0.566174
vt 0.468194 0.554407
vt 0.468180 0.566260
vt 0.470759 0.554410
vt 0.470732 0.566264
vt 0.468176 0.568824
vt 0.468144 0.580673
vt 0.421199 0.580591
vt 0.421220 0.568738
vt 0.421251 0.551758
vt 0.468197 0.551844
vt 0.418383 0.507301
vt 0.418432 0.495392
vt 0.421007 0.495403
vt 0.420958 0.507312
vt 0.468178 0.495592
vt 0.468131 0.507500
vt 0.470752 0.495602
vt 0.470706 0.507510
vt 0.468121 0.510075
vt 0.468073 0.521985
vt 0.420900 0.521796
vt 0.420947 0.509887
vt 0.421017 0.492827
vt 0.468188 0.493016
vt 0.015166 0.559065
vt 0.016108 0.549783
vt 0.025192 0.550847
vt 0.024324 0.560390
vt 0.131041 0.567239
vt 0.131080 0.557444
vt 0.295650 0.546677
vt 0.296487 0.556106
vt 0.304569 0.546806
vt 0.305102 0.556283
vt 0.298185 0.564894
vt 0.299628 0.574132
vt 0.134295 0.585573
vt 0.133609 0.575978
vt 0.133354 0.548705
vt 0.294479 0.537844
vt 0.124172 0.585529
vt 0.124796 0.575877
vt 0.128725 0.557553
vt 0.125636 0.548375
vt 0.128663 0.567098
vt 0.025836 0.579644
vt 0.025268 0.569838
vt 0.027183 0.541952
vt 0.297698 0.503058
vt 0.298819 0.511870
vt 0.290506 0.513096
vt 0.289385 0.504223
vt 0.194257 0.513409
vt 0.194373 0.522537
vt 0.025032 0.514551
vt 0.025665 0.505509
vt 0.016727 0.513788
vt 0.017411 0.504907
vt 0.023969 0.532178
vt 0.024402 0.523121
vt 0.191807 0.530787
vt 0.191665 0.539802
vt 0.026152 0.496940
vt 0.191727 0.505125
vt 0.200530 0.530269
vt 0.201153 0.539397
vt 0.196582 0.522372
vt 0.196501 0.513594
vt 0.199950 0.505405
vt 0.291439 0.521497
vt 0.292308 0.530453
vt 0.288470 0.495733
vt 0.537017 0.540010
vt 0.532611 0.540026
vt 0.532430 0.496246
vt 0.536869 0.495976
vt 0.543371 0.495827
vt 0.548008 0.495695
vt 0.549142 0.537984
vt 0.544523 0.538021
vt 0.554468 0.495410
vt 0.556606 0.539854
vt 0.549174 0.543625
vt 0.544582 0.543650
vt 0.556744 0.541598
vt 0.536950 0.541714
vt 0.532612 0.541659
vt 0.548289 0.586342
vt 0.543639 0.586246
vt 0.554725 0.586543
vt 0.537163 0.586105
vt 0.532726 0.585895
vt 0.598206 0.540135
vt 0.593517 0.540568
vt 0.593761 0.496565
vt 0.598434 0.495930
vt 0.605316 0.495819
vt 0.610224 0.495685
vt 0.611256 0.538376
vt 0.606312 0.538386
vt 0.617136 0.495897
vt 0.619211 0.540145
vt 0.611206 0.544140
vt 0.606295 0.544117
vt 0.619314 0.541956
vt 0.598253 0.541907
vt 0.593680 0.542330
vt 0.610170 0.586618
vt 0.605273 0.586591
vt 0.616870 0.586819
vt 0.598343 0.586488
vt 0.593723 0.585896
vt 0.526227 0.539320
vt 0.521840 0.539207
vt 0.523809 0.495110
vt 0.528263 0.495543
vt 0.512645 0.494500
vt 0.517275 0.494767
vt 0.514274 0.537134
vt 0.509637 0.537041
vt 0.502116 0.538789
vt 0.506151 0.493962
vt 0.514153 0.542774
vt 0.509531 0.542702
vt 0.521823 0.540901
vt 0.526239 0.540971
vt 0.501942 0.540546
vt 0.515889 0.585481
vt 0.511231 0.585634
vt 0.522453 0.585326
vt 0.526934 0.585039
vt 0.504722 0.585893
vn 0.1843 0.6189 0.7635
vn 0.1886 0.5950 0.7813
vn -0.1886 -0.5948 -0.7814
vn -0.1742 -0.6691 -0.7224
vn -0.1743 -0.6691 -0.7224
vn 0.9721 0.0000 -0.2346
vn -0.9721 0.0000 0.2346
vn 0.1733 -0.6740 0.7181
vn 0.1731 -0.6740 0.7181
vn -0.1831 0.6252 -0.7586
vn -0.1831 0.6252 -0.7587
vn 0.1876 -0.6007 0.7772
vn -0.1874 0.6016 -0.7765
vn 0.0000 1.0000 0.0000
vn -0.0000 -1.0000 -0.0000
vn 0.2346 0.0000 0.9721
vn -0.2346 0.0000 -0.9721
vn -0.1817 0.6328 -0.7527
vn 0.1817 -0.6328 0.7527
vn 0.1485 0.7743 0.6151
vn -0.1485 -0.7743 -0.6151
vn 0.1467 0.7803 0.6079
vn -0.0011 1.0000 -0.0045
vn -0.0010 1.0000 -0.0045
vn 0.0048 -0.9998 0.0198
vn 0.1768 -0.6575 0.7324
vn -0.1814 0.6342 -0.7516
vn 0.1831 -0.6254 0.7585
vn -0.1831 0.6254 -0.7585
vn -0.1745 -0.6691 -0.7224
vn 0.1735 -0.6740 0.7181
vn 0.1841 0.6189 0.7636
vn -0.1832 0.6252 -0.7586
vn -0.1833 0.6252 -0.7586
usemtl SwimmingPool_mat
s 1
f 1/1/1 2/2/1 3/3/2 4/4/2
f 5/5/3 6/6/3 7/7/4 8/8/5
f 7/7/6 6/6/6 3/3/6 2/2/6
f 5/5/7 8/8/7 1/9/7 4/10/7
f 8/8/5 7/7/4 9/11/8 10/12/9
f 7/7/6 2/2/6 11/13/6 9/11/6
f 2/2/1 1/1/1 12/14/10 11/13/11
f 1/9/7 8/8/7 10/12/7 12/15/7
f 10/12/9 9/11/8 13/16/12 14/17/12
f 9/11/6 11/13/6 15/18/6 13/16/6
f 11/13/11 12/14/10 16/19/13 15/18/13
f 12/15/7 10/12/7 14/17/7 16/20/7
f 17/21/7 18/22/7 19/23/7 20/24/7
f 20/24/14 19/23/14 21/25/14 22/26/14
f 22/26/6 21/25/6 23/27/6 24/28/6
f 24/29/15 23/30/15 18/31/15 17/32/15
f 18/33/16 23/34/16 21/25/16 19/23/16
f 24/29/17 17/32/17 20/24/17 22/26/17
f 25/35/7 26/36/7 27/37/7 28/38/7
f 28/38/14 27/37/14 29/39/14 30/40/14
f 30/40/6 29/39/6 31/41/6 32/42/6
f 32/43/15 31/44/15 26/45/15 25/46/15
f 26/47/16 31/48/16 29/39/16 27/37/16
f 32/43/17 25/46/17 28/38/17 30/40/17
f 33/49/7 34/50/7 35/51/7 36/52/7
f 36/52/14 35/51/14 37/53/14 38/54/14
f 38/54/6 37/53/6 39/55/6 40/56/6
f 40/57/15 39/58/15 34/59/15 33/60/15
f 34/61/16 39/62/16 37/53/16 35/51/16
f 40/57/17 33/60/17 36/52/17 38/54/17
f 41/63/7 42/64/7 43/65/7 44/66/7
f 44/66/14 43/65/14 45/67/14 46/68/14
f 46/68/6 45/67/6 47/69/6 48/70/6
f 48/71/15 47/72/15 42/73/15 41/74/15
f 42/75/16 47/76/16 45/67/16 43/65/16
f 48/71/17 41/74/17 44/66/17 46/68/17
f 49/77/7 50/78/7 51/79/7 52/80/7
f 52/80/14 51/79/14 53/81/14 54/82/14
f 54/82/6 53/81/6 55/83/6 56/84/6
f 56/85/15 55/86/15 50/87/15 49/88/15
f 50/89/16 55/90/16 53/81/16 51/79/16
f 56/85/17 49/88/17 52/80/17 54/82/17
f 57/91/7 58/92/7 59/93/7 60/94/7
f 60/94/14 59/93/14 61/95/14 62/96/14
f 62/96/6 61/95/6 63/97/6 64/98/6
f 64/99/15 63/100/15 58/101/15 57/102/15
f 58/103/16 63/104/16 61/95/16 59/93/16
f 64/99/17 57/102/17 60/94/17 62/96/17
f 65/105/7 66/106/7 67/107/7 68/108/7
f 68/108/18 67/107/18 69/109/18 70/110/18
f 70/110/6 69/109/6 71/111/6 72/112/6
f 72/113/19 71/114/19 66/115/19 65/116/19
f 66/117/20 71/118/20 69/109/20 67/107/20
f 72/113/21 65/116/21 68/108/21 70/110/21
f 73/119/7 74/120/7 75/121/7 76/122/7
f 76/122/18 75/121/18 77/123/18 78/124/18
f 78/124/6 77/123/6 79/125/6 80/126/6
f 80/127/19 79/128/19 74/129/19 73/130/19
f 74/131/20 79/132/20 77/123/20 75/121/20
f 80/127/21 73/130/21 76/122/21 78/124/21
f 81/133/7 82/134/7 83/135/7 84/136/7
f 84/136/18 83/135/18 85/137/18 86/138/18
f 86/138/6 85/137/6 87/139/6 88/140/6
f 88/141/19 87/142/19 82/143/19 81/144/19
f 82/145/20 87/146/20 85/137/20 83/135/20
f 88/141/21 81/144/21 84/136/21 86/138/21
f 89/147/22 90/148/22 91/149/22 92/150/22
f 93/151/23 94/152/24 95/153/14 96/154/14
f 96/154/17 95/153/17 97/155/17 98/156/17
f 98/157/15 97/158/15 99/159/25 100/160/25
f 99/161/6 97/162/6 95/153/6 94/152/6
f 98/157/7 100/160/7 93/151/7 96/154/7
f 100/160/25 99/159/25 101/163/26 102/164/26
f 99/161/6 94/152/6 103/165/6 101/166/6
f 94/152/24 93/151/23 104/167/27 103/165/27
f 93/151/7 100/160/7 102/164/7 104/167/7
f 102/164/26 101/163/26 90/168/28 89/169/28
f 101/166/6 103/165/6 91/149/6 90/170/6
f 103/165/27 104/167/27 92/150/29 91/149/29
f 104/167/7 102/164/7 89/169/7 92/150/7
f 105/171/22 106/172/22 107/173/22 108/174/22
f 109/175/23 110/176/23 111/177/14 112/178/14
f 112/178/17 111/177/17 113/179/17 114/180/17
f 114/181/15 113/182/15 115/183/25 116/184/25
f 115/183/6 113/182/6 111/177/6 110/176/6
f 114/185/7 116/186/7 109/175/7 112/178/7
f 116/184/25 115/183/25 117/187/26 118/188/26
f 115/183/6 110/176/6 119/189/6 117/187/6
f 110/176/23 109/175/23 120/190/27 119/189/27
f 109/175/7 116/186/7 118/191/7 120/190/7
f 118/188/26 117/187/26 106/192/28 105/193/28
f 117/187/6 119/189/6 107/173/6 106/192/6
f 119/189/27 120/190/27 108/174/29 107/173/29
f 120/190/7 118/191/7 105/194/7 108/174/7
f 121/195/1 122/196/1 123/197/2 124/198/2
f 125/199/3 126/200/3 127/201/30 128/202/5
f 127/201/6 126/200/6 123/203/6 122/204/6
f 125/199/7 128/202/7 121/195/7 124/198/7
f 128/202/5 127/201/30 129/205/8 130/206/31
f 127/201/6 122/204/6 131/207/6 129/205/6
f 122/196/1 121/195/1 132/208/10 131/209/11
f 121/195/7 128/202/7 130/206/7 132/208/7
f 130/206/31 129/205/8 133/210/12 134/211/12
f 129/205/6 131/207/6 135/212/6 133/210/6
f 131/209/11 132/208/10 136/213/13 135/214/13
f 132/208/7 130/206/7 134/211/7 136/213/7
f 137/215/1 138/216/32 139/217/2 140/218/2
f 141/219/3 142/220/3 143/221/5 144/222/5
f 143/221/6 142/220/6 139/223/6 138/224/6
f 141/219/7 144/222/7 137/215/7 140/218/7
f 144/222/5 143/221/5 145/225/8 146/226/8
f 143/221/6 138/224/6 147/227/6 145/225/6
f 138/216/32 137/215/1 148/228/33 147/229/11
f 137/215/7 144/222/7 146/226/7 148/228/7
f 146/226/8 145/225/8 149/230/12 150/231/12
f 145/225/6 147/227/6 151/232/6 149/230/6
f 147/229/11 148/228/33 152/233/13 151/234/13
f 148/228/7 146/226/7 150/231/7 152/233/7
f 153/235/1 154/236/32 155/237/2 156/238/2
f 157/239/3 158/240/3 159/241/4 160/242/5
f 159/241/6 158/240/6 155/237/6 154/236/6
f 157/239/7 160/242/7 153/243/7 156/244/7
f 160/242/5 159/241/4 161/245/8 162/246/8
f 159/241/6 154/236/6 163/247/6 161/245/6
f 154/236/32 153/235/1 164/248/34 163/247/11
f 153/243/7 160/242/7 162/246/7 164/249/7
f 162/246/8 161/245/8 165/250/12 166/251/12
f 161/245/6 163/247/6 167/252/6 165/250/6
f 163/247/11 164/248/34 168/253/13 167/252/13
f 164/249/7 162/246/7 166/251/7 168/254/7
