# Blender v2.80 (sub 75) OBJ File: ''
# www.blender.org
mtllib diving.mtl
o diving_board_SwimmingPool.004
v -0.793619 0.092273 4.375300
v 0.793619 0.092273 4.375300
v 0.793619 0.278652 4.375300
v -0.793619 0.278652 4.375300
v 0.793619 0.278654 -2.421973
v -0.793619 0.278654 -2.421973
v 0.793619 0.092275 -2.421973
v -0.793619 0.092275 -2.421973
v -0.500000 -0.539761 -0.476668
v 0.500000 -0.539761 -0.476668
v 0.500000 0.168831 -0.476668
v -0.500000 0.168831 -0.476668
v -0.500000 0.168832 -1.476668
v 0.500000 0.168832 -1.476668
v 0.500000 -0.539760 -1.476668
v -0.500000 -0.539760 -1.476668
vt 0.118320 0.700173
vt 0.141083 0.700173
vt 0.141083 0.702771
vt 0.118320 0.702771
vt 0.141083 0.797593
vt 0.118320 0.797593
vt 0.141083 0.800196
vt 0.118320 0.800196
vt 0.141084 0.895016
vt 0.118320 0.895016
vt 0.143942 0.702771
vt 0.143942 0.797593
vt 0.115648 0.797593
vt 0.115648 0.702771
vt 0.148133 0.767801
vt 0.148133 0.745699
vt 0.163794 0.745699
vt 0.163794 0.767801
vt 0.163797 0.701495
vt 0.163796 0.723597
vt 0.148135 0.723598
vt 0.148137 0.701496
vt 0.148133 0.789902
vt 0.163794 0.789902
vn 0.0000 0.0000 1.0000
vn 0.0000 1.0000 0.0000
vn 0.0000 0.0000 -1.0000
vn 0.0000 -1.0000 -0.0000
vn 1.0000 0.0000 0.0000
vn -1.0000 0.0000 0.0000
usemtl SwimmingPool_mat
s 1
f 1/1/1 2/2/1 3/3/1 4/4/1
f 4/4/2 3/3/2 5/5/2 6/6/2
f 6/6/3 5/5/3 7/7/3 8/8/3
f 8/8/4 7/7/4 2/9/4 1/10/4
f 2/11/5 7/12/5 5/5/5 3/3/5
f 8/13/6 1/14/6 4/4/6 6/6/6
f 9/15/1 10/16/1 11/17/1 12/18/1
f 13/19/3 14/20/3 15/21/3 16/22/3
f 10/16/5 15/21/5 14/20/5 11/17/5
f 16/23/6 9/15/6 12/18/6 13/24/6
